<svg xmlns="http://www.w3.org/2000/svg" width="34.297" height="24.183" viewBox="0 0 34.297 24.183">
  <g id="Group_22" data-name="Group 22" transform="translate(-573.333 -431.649)">
    <path id="Path_100" data-name="Path 100" d="M593.488,455.833a1.929,1.929,0,0,1-1.254-.443,1.366,1.366,0,0,1,0-2.145l11.112-9.5-11.112-9.5a1.366,1.366,0,0,1,0-2.145,1.992,1.992,0,0,1,2.509,0l12.366,10.574a1.364,1.364,0,0,1,0,2.145l-12.366,10.576A1.93,1.93,0,0,1,593.488,455.833Z" fill="#002575"/>
    <path id="Path_101" data-name="Path 101" d="M605.713,445.136h-30.6a1.535,1.535,0,1,1,0-3.033h30.6a1.535,1.535,0,1,1,0,3.033Z" fill="#002575"/>
  </g>
</svg>
