<?xml version="1.0" encoding="utf-8"?>
<!-- Generator: Adobe Illustrator 26.3.1, SVG Export Plug-In . SVG Version: 6.00 Build 0)  -->
<svg version="1.1" id="Layer_1" xmlns="http://www.w3.org/2000/svg" xmlns:xlink="http://www.w3.org/1999/xlink" x="0px" y="0px"
	 viewBox="0 0 34.3 24.2" style="enable-background:new 0 0 34.3 24.2;" xml:space="preserve">
<style type="text/css">
	.st0{fill:#002575;}
</style>
<g id="Group_22" transform="translate(-573.333 -431.649)">
	<path id="Path_100" class="st0" d="M593.5,455.8c-0.5,0-0.9-0.2-1.3-0.4c-0.6-0.5-0.7-1.3-0.2-1.9c0.1-0.1,0.1-0.2,0.2-0.2
		l11.1-9.5l-11.1-9.5c-0.6-0.5-0.7-1.3-0.2-1.9c0.1-0.1,0.1-0.2,0.2-0.2c0.7-0.6,1.8-0.6,2.5,0l12.4,10.6c0.6,0.5,0.7,1.3,0.2,1.9
		c-0.1,0.1-0.1,0.2-0.2,0.2l-12.4,10.6C594.4,455.7,593.9,455.8,593.5,455.8z"/>
	<path id="Path_101" class="st0" d="M605.7,445.1h-30.6c-0.8,0.1-1.6-0.4-1.8-1.3c-0.1-0.8,0.4-1.6,1.3-1.8c0.2,0,0.3,0,0.5,0h30.6
		c0.8-0.1,1.6,0.4,1.8,1.3c0.1,0.8-0.4,1.6-1.3,1.8C606,445.2,605.9,445.2,605.7,445.1z"/>
</g>
</svg>
