<?xml version="1.0" encoding="utf-8"?>
<!-- Generator: Adobe Illustrator 26.3.1, SVG Export Plug-In . SVG Version: 6.00 Build 0)  -->
<svg version="1.1" id="Layer_1" xmlns="http://www.w3.org/2000/svg" xmlns:xlink="http://www.w3.org/1999/xlink" x="0px" y="0px"
	 viewBox="0 0 187.8 30.9" style="enable-background:new 0 0 187.8 30.9;" xml:space="preserve">
<style type="text/css">
	.st0{fill:#333333;}
	.st1{fill:#F9B23E;}
	.st2{fill:none;stroke:#FFFFFF;stroke-width:3.7621;stroke-linecap:round;stroke-miterlimit:10;}
</style>
<g>
	<path class="st0" d="M0,18.4v-7.7c0-3.6,1.1-6.1,4.9-6.1c3.5,0,4.6,2.1,4.6,5.5v1.2H7.8v-1.1c0-2.5-0.4-4.1-2.9-4.1
		c-2.6,0-3.1,1.8-3.1,4.3v8.3c0,2.9,0.7,4.3,3.1,4.3c2.4,0,2.9-1.7,2.9-4.2v-1.3h1.7v1.2c0,3.4-1,5.8-4.6,5.8C1,24.5,0,21.8,0,18.4z
		"/>
	<path class="st0" d="M11.9,21.5V10.4h1.8v10.8c0,1.4,0.4,1.9,1.3,1.9c0.8,0,1.7-0.6,2.4-1.4V10.4h1.8v13.9h-1.8v-1.5
		c-0.9,1-2.1,1.8-3.4,1.8C12.6,24.5,11.9,23.4,11.9,21.5z"/>
	<path class="st0" d="M22,10.4h1.8v1.9c0.9-1.5,2.1-2,3.2-2c0.1,0,0.2,0,0.3,0v1.9C27.1,12,26.7,12,26.4,12c-1.1,0-2,0.5-2.6,1.6
		v10.7H22V10.4z"/>
	<path class="st0" d="M29.2,10.4h1.8v1.9c0.9-1.5,2.1-2,3.2-2c0.1,0,0.2,0,0.3,0v1.9C34.2,12,33.9,12,33.6,12c-1.1,0-2,0.5-2.6,1.6
		v10.7h-1.8V10.4z"/>
	<path class="st0" d="M35.8,19v-3.5c0-4.1,1.2-5.4,3.8-5.4c2.9,0,3.6,1.8,3.6,5.7v1.2h-5.6v2.4c0,2.7,0.6,3.6,2,3.6
		c1.1,0,1.9-0.5,1.9-2.7v-1h1.7v0.8c0,2.5-0.9,4.2-3.6,4.2C37,24.5,35.8,23.1,35.8,19z M41.5,16.1V15c0-2.2-0.2-3.5-1.9-3.5
		c-1.4,0-2,0.8-2,3.7v0.9H41.5z"/>
	<path class="st0" d="M45.6,10.4h1.8v1.4c0.9-1,2-1.7,3.3-1.7c1.4,0,2.1,1.1,2.1,3v11.1H51V13.5c0-1.4-0.4-2-1.3-2
		c-0.8,0-1.7,0.6-2.4,1.3v11.4h-1.8V10.4z"/>
	<path class="st0" d="M56.2,21.4v-9.8h-1.7v-1.2h1.7V6.1h1.8v4.3h2.3v1.2h-2.3v9.7c0,1.3,0.2,1.8,1.2,1.8c0.3,0,0.7,0,1-0.1v1.3
		c-0.5,0.1-1,0.1-1.5,0.1C56.6,24.4,56.2,23.1,56.2,21.4z"/>
	<path class="st0" d="M67,18.5v-8.1c0-3.5,1.2-5.8,5-5.8c3.7,0,5,2.3,5,5.8v8.1c0,3.5-1.2,6-5,6C68.1,24.5,67,22,67,18.5z
		 M75.1,18.9v-8.8c0-2.5-0.6-4-3.1-4c-2.6,0-3.2,1.6-3.2,4v8.8c0,2.4,0.6,4.1,3.2,4.1C74.5,23,75.1,21.4,75.1,18.9z"/>
	<path class="st0" d="M79.6,10.4h1.8v1.2c0.6-0.7,1.4-1.4,2.7-1.4c2.7,0,3.1,2.7,3.1,5.5v2.9c0,3.6-0.7,5.9-3.3,5.9
		c-1.1,0-1.9-0.7-2.5-1.3v5.7h-1.8V10.4z M85.4,18.6v-3c0-2.7-0.3-4.2-1.9-4.2c-0.9,0-1.7,0.6-2.2,1.1v9.5c0.5,0.6,1.3,1,2.2,1
		C85.1,23.1,85.4,21.5,85.4,18.6z"/>
	<path class="st0" d="M89.4,19v-3.5c0-4.1,1.2-5.4,3.8-5.4c2.9,0,3.6,1.8,3.6,5.7v1.2h-5.6v2.4c0,2.7,0.6,3.6,2,3.6
		c1.1,0,1.9-0.5,1.9-2.7v-1h1.7v0.8c0,2.5-0.9,4.2-3.6,4.2C90.5,24.5,89.4,23.1,89.4,19z M95,16.1V15c0-2.2-0.2-3.5-1.9-3.5
		c-1.4,0-2,0.8-2,3.7v0.9H95z"/>
	<path class="st0" d="M99.1,10.4h1.8v1.4c0.9-1,2-1.7,3.3-1.7c1.4,0,2.1,1.1,2.1,3v11.1h-1.8V13.5c0-1.4-0.4-2-1.3-2
		c-0.8,0-1.7,0.6-2.4,1.3v11.4h-1.8V10.4z"/>
	<path class="st0" d="M109.1,6.1h1.8v2.4h-1.8V6.1z M109.1,10.4h1.8v13.9h-1.8V10.4z"/>
	<path class="st0" d="M113.8,10.4h1.8v1.4c0.9-1,2-1.7,3.3-1.7c1.4,0,2.1,1.1,2.1,3v11.1h-1.8V13.5c0-1.4-0.4-2-1.3-2
		c-0.8,0-1.7,0.6-2.4,1.3v11.4h-1.8V10.4z"/>
	<path class="st0" d="M122.7,26.3c0-1.4,1.2-2.4,2.3-3c-1.1-0.3-1.5-0.8-1.5-1.5c0-1,0.6-1.7,1.7-2.5c-1.2-0.9-1.8-2.3-1.8-4.2
		c0-2.6,1.2-4.8,3.9-4.8c1.6,0,2.5,0.8,3,1.7c0.3-0.5,1.1-1.2,1.9-1.6l0.4-0.1l0.5,1.2c-0.8,0.1-1.9,0.7-2.3,1.2
		c0.2,0.6,0.4,1.8,0.4,2.4c0,2.8-1,4.8-3.8,4.8c-0.5,0-1.1-0.1-1.4-0.2c-0.5,0.5-0.9,1.1-0.9,1.6c0,0.4,0.3,0.7,1.2,0.8l2.2,0.3
		c2.2,0.3,3.5,1.3,3.5,3.2c0,2.2-1.9,3.2-4.6,3.2C124.4,28.8,122.7,28,122.7,26.3z M130.3,25.6c0-0.9-0.5-1.5-2.6-1.9l-1.8-0.2
		c-0.7,0.5-1.8,1.3-1.8,2.4s1,1.5,3,1.5C129.1,27.4,130.3,26.9,130.3,25.6z M129.5,15c0-1.7-0.4-3.6-2.3-3.6c-1.9,0-2.3,2-2.3,3.6
		c0,1.6,0.3,3.6,2.3,3.6C129.3,18.6,129.5,16.7,129.5,15z"/>
	<path class="st0" d="M133.4,20.5l1.5-0.5c0.2,2.1,1,3.1,2.4,3.1c1.2,0,1.9-0.7,1.9-2c0-0.9-0.5-1.8-1.7-2.8l-1.9-1.6
		c-1.2-1-1.9-2-1.9-3.5c0-2,1.3-3.1,3.3-3.1c2.1,0,3.2,1.5,3.3,3.6l-1.2,0.4c-0.1-1.9-0.8-2.7-2-2.7c-1.1,0-1.8,0.6-1.8,1.7
		c0,0.8,0.3,1.4,1.1,2.2l2,1.8c1.1,1,2.3,2.1,2.3,4c0,2.2-1.4,3.3-3.6,3.3C134.9,24.5,133.6,22.9,133.4,20.5z"/>
</g>
<circle class="st1" cx="172.3" cy="15.5" r="15.5"/>
<g>
	<polyline class="st2" points="172.6,7.2 180.8,15.3 172.6,23.5 	"/>
	<line class="st2" x1="163.1" y1="15.4" x2="180.4" y2="15.4"/>
</g>
</svg>
