<?xml version="1.0" encoding="utf-8"?>
<!-- Generator: Adobe Illustrator 26.3.1, SVG Export Plug-In . SVG Version: 6.00 Build 0)  -->
<svg version="1.1" id="Icons" xmlns="http://www.w3.org/2000/svg" xmlns:xlink="http://www.w3.org/1999/xlink" x="0px" y="0px"
	 viewBox="0 0 57.1 59.5" style="enable-background:new 0 0 57.1 59.5;" xml:space="preserve">
<style type="text/css">
	.st0{fill:none;stroke:#FFFFFF;stroke-width:2.3;}
	.st1{fill:none;stroke:#FFFFFF;stroke-width:2.3;stroke-linejoin:round;}
	.st2{fill:none;stroke:#FFFFFF;stroke-width:2.3;stroke-miterlimit:10;}
	.st3{fill:none;stroke:#FFFFFF;stroke-width:2.3;stroke-linejoin:round;stroke-miterlimit:10;}
</style>
<g>
	<g>
		<path class="st0" d="M41.6,23.2c0,8-5.9,14.4-13.1,14.4c-7.2,0-13.1-6.2-13.1-14.4c0-6.3,5.9-6.3,13.1-6.3
			C35.8,16.9,41.6,16.9,41.6,23.2z"/>
		<path class="st1" d="M33.2,14c-1.3-5.8-1.1-10.6-1-12.8h-7.5C24.9,3,25.3,7.8,23.9,14"/>
		<path class="st2" d="M14.1,17.7c-0.1-0.6-0.2-1.3-0.2-2l0,0c0-6.6,4.7-12.1,10.9-13.4"/>
		<path class="st2" d="M32.4,2.2c6.2,1.3,10.8,6.8,10.8,13.4l0,0c0,0.8-0.1,1.5-0.2,2.1"/>
		<path class="st0" d="M41.6,22.5c4-0.4,4.9-1.2,4.9-2.5c0-2.3-4.9-3-18-3c-13.3,0-18,0.7-18,3c0,1.3,1.2,2.1,4.9,2.5"/>
	</g>
	<path class="st3" d="M55.9,59.5c0-9.5-7-15.5-16.9-17.9L28.5,52.2L18,41.6C8.1,44,1.1,49.9,1.1,59.5"/>
	<line class="st3" x1="28.5" y1="52.2" x2="28.5" y2="59.5"/>
	<path class="st3" d="M18,41.7c0,0,2.2-3.4,1.7-7.9"/>
	<path class="st3" d="M39.1,41.7c0,0-2.2-3.4-1.7-7.9"/>
</g>
</svg>
