<?xml version="1.0" encoding="utf-8"?>
<!-- Generator: Adobe Illustrator 26.3.1, SVG Export Plug-In . SVG Version: 6.00 Build 0)  -->
<svg version="1.1" id="Icon_Set" xmlns="http://www.w3.org/2000/svg" xmlns:xlink="http://www.w3.org/1999/xlink" x="0px" y="0px"
	 viewBox="0 0 52 56" style="enable-background:new 0 0 52 56;" xml:space="preserve">
<style type="text/css">
	.st0{fill:none;stroke:#FFFFFF;stroke-width:2;stroke-linecap:round;stroke-linejoin:round;}
</style>
<g>
	<path class="st0" d="M17,13c-0.8-1.2-1-2.6-1-4.1C16,4.6,19.8,1,24.6,1c7.3,0,8.6,5,13.4,5c0,2.3-2.4,6.3-7.3,6.3
		C24.6,12.3,21.9,7.8,17,13z"/>
	<path class="st0" d="M49,39v-5c0-0.6-0.4-1-1-1H30.8c-1.2,0-2.3,0.5-3.1,1.3l0,0C27.3,34.7,26.6,35,26,35l0,0
		c-0.6,0-1.3-0.3-1.7-0.7l0,0c-0.8-0.8-2-1.3-3.1-1.3H4c-0.6,0-1,0.4-1,1v5"/>
	<path class="st0" d="M3,47v5c0,0.6,0.4,1,1,1h17.2c1.2,0,2.3,0.5,3.1,1.3l0,0c0.5,0.5,1.1,0.7,1.7,0.7l0,0c0.6,0,1.3-0.3,1.7-0.7
		l0,0c0.8-0.8,2-1.3,3.1-1.3H48c0.6,0,1-0.4,1-1v-5"/>
	<path class="st0" d="M5,33v-4h14.3c2.9,0,5.4,1.7,6.5,4.4L26,34l0.2-0.6c1.1-2.7,3.6-4.4,6.5-4.4H47v4"/>
	<line class="st0" x1="26" y1="55" x2="26" y2="35"/>
	<path class="st0" d="M17,13v3c0,5,4,9,9,9l0,0c5,0,9-4,9-9v-5"/>
	<path class="st0" d="M17.9,20c-4,1-7.8,2.6-10.9,5"/>
	<path class="st0" d="M45,25c-3.2-2.4-6.9-4.1-10.9-5"/>
	<path class="st0" d="M3,47c3.3,0,6-2.8,6-5c0-2.2-2.7-3-6-3l0,0c-1.1,0-2,0.9-2,2v4C1,46.1,1.9,47,3,47L3,47z"/>
	<path class="st0" d="M49,47c-3.3,0-6-2.8-6-5c0-2.2,2.7-3,6-3l0,0c1.1,0,2,0.9,2,2v4C51,46.1,50.1,47,49,47L49,47z"/>
</g>
</svg>
