<?xml version="1.0" encoding="utf-8"?>
<!-- Generator: Adobe Illustrator 26.3.1, SVG Export Plug-In . SVG Version: 6.00 Build 0)  -->
<svg version="1.1" id="Icon_Set" xmlns="http://www.w3.org/2000/svg" xmlns:xlink="http://www.w3.org/1999/xlink" x="0px" y="0px"
	 viewBox="0 0 52 48" style="enable-background:new 0 0 52 48;" xml:space="preserve">
<style type="text/css">
	.st0{fill:none;stroke:#FFFFFF;stroke-width:2;stroke-linecap:round;stroke-linejoin:round;}
</style>
<g>
	<line class="st0" x1="1" y1="9" x2="47" y2="9"/>
	<line class="st0" x1="5" y1="5" x2="5" y2="5"/>
	<line class="st0" x1="9" y1="5" x2="9" y2="5"/>
	<line class="st0" x1="13" y1="5" x2="13" y2="5"/>
	<path class="st0" d="M9,43H5c-2.2,0-4-1.8-4-4V5c0-2.2,1.8-4,4-4h42c2.2,0,4,1.8,4,4v34c0,2.2-1.8,4-4,4h-4"/>
	<circle class="st0" cx="26" cy="30" r="7"/>
	<path class="st0" d="M42,27h-1.6c-0.5,0-0.8-0.3-1-0.8c-0.3-1.1-0.7-2.1-1.3-3.1c-0.2-0.4-0.2-0.9,0.1-1.2l1.1-1.1
		c0.4-0.4,0.4-1,0-1.4l-2.8-2.8c-0.4-0.4-1-0.4-1.4,0l-1.1,1.1c-0.3,0.3-0.8,0.4-1.2,0.1c-1-0.6-2-1-3.1-1.3c-0.4-0.1-0.8-0.5-0.8-1
		V14c0-0.6-0.4-1-1-1h-4c-0.6,0-1,0.4-1,1v1.6c0,0.5-0.3,0.8-0.8,1c-1.1,0.3-2.1,0.7-3.1,1.3c-0.4,0.2-0.9,0.2-1.2-0.1l-1.1-1.1
		c-0.4-0.4-1-0.4-1.4,0l-2.8,2.8c-0.4,0.4-0.4,1,0,1.4l1.1,1.1c0.3,0.3,0.4,0.8,0.1,1.2c-0.6,1-1,2-1.3,3.1c-0.1,0.4-0.5,0.8-1,0.8
		H10c-0.6,0-1,0.4-1,1v4c0,0.6,0.4,1,1,1h1.6c0.5,0,0.8,0.3,1,0.8c0.3,1.1,0.7,2.1,1.3,3.1c0.2,0.4,0.2,0.9-0.1,1.2l-1.1,1.1
		c-0.4,0.4-0.4,1,0,1.4l2.8,2.8c0.4,0.4,1,0.4,1.4,0l1.1-1.1c0.3-0.3,0.8-0.4,1.2-0.1c1,0.6,2,1,3.1,1.3c0.4,0.1,0.8,0.5,0.8,1V46
		c0,0.6,0.4,1,1,1h4c0.6,0,1-0.4,1-1v-1.6c0-0.5,0.3-0.8,0.8-1c1.1-0.3,2.1-0.7,3.1-1.3c0.4-0.2,0.9-0.2,1.2,0.1l1.1,1.1
		c0.4,0.4,1,0.4,1.4,0l2.8-2.8c0.4-0.4,0.4-1,0-1.4l-1.1-1.1c-0.3-0.3-0.4-0.8-0.1-1.2c0.6-1,1-2,1.3-3.1c0.1-0.4,0.5-0.8,1-0.8H42
		c0.6,0,1-0.4,1-1v-4C43,27.4,42.6,27,42,27z"/>
</g>
</svg>
