<?xml version="1.0" encoding="utf-8"?>
<!-- Generator: Adobe Illustrator 27.0.1, SVG Export Plug-In . SVG Version: 6.00 Build 0)  -->
<svg version="1.1" id="Layer_1" xmlns="http://www.w3.org/2000/svg" xmlns:xlink="http://www.w3.org/1999/xlink" x="0px" y="0px"
	 viewBox="0 0 368.7 257.5" style="enable-background:new 0 0 368.7 257.5;" xml:space="preserve">
<style type="text/css">
	.st0{fill:#273A80;}
	.st1{fill:#FFFFFF;stroke:#273A80;stroke-miterlimit:10;}
	.st2{fill:#FFFFFF;}
</style>
<path class="st0" d="M329.7,257.5H39.1C17.6,257.5,0,239.9,0,218.4V39.1C0,17.6,17.6,0,39.1,0h290.6c21.5,0,39.1,17.6,39.1,39.1
	v179.3C368.7,239.9,351.2,257.5,329.7,257.5z"/>
<g>
	<g>
		<g>
			<path class="st1" d="M159.2,38H58.5C47.8,38,39,46.7,39,57.5v130.9c0,10.8,8.8,19.5,19.5,19.5h24.1c6.1,8.8,16.3,14.6,27.8,14.6
				c11.5,0,21.7-5.8,27.8-14.6h21.1c10.8,0,19.5-8.8,19.5-19.5V57.5C178.7,46.7,169.9,38,159.2,38z M110.4,214.9
				c-6.9,0-13.1-2.7-17.8-7c-2.3-2.2-4.2-4.7-5.7-7.6c-1.7-3.5-2.7-7.4-2.7-11.5c0-14.4,11.7-26.1,26.1-26.1
				c14.4,0,26.1,11.7,26.1,26.1c0,4.1-1,8-2.7,11.5c-1.4,2.9-3.3,5.4-5.7,7.6C123.4,212.2,117.2,214.9,110.4,214.9z M171.1,188.3
				c0,6.6-5.4,11.9-11.9,11.9H142c1.3-3.6,2-7.5,2-11.5c0-18.6-15.1-33.7-33.7-33.7c-18.6,0-33.7,15.1-33.7,33.7c0,4,0.7,7.9,2,11.5
				H58.5c-6.6,0-11.9-5.4-11.9-11.9V57.5c0-6.6,5.4-11.9,11.9-11.9h100.6c6.6,0,11.9,5.4,11.9,11.9V188.3z"/>
			<path class="st1" d="M157,74.1H95.3c-2.1,0-3.8,1.7-3.8,3.8c0,2.1,1.7,3.8,3.8,3.8H157c2.1,0,3.8-1.7,3.8-3.8
				C160.8,75.8,159.1,74.1,157,74.1z"/>
			<path class="st1" d="M157,57.7H95.3c-2.1,0-3.8,1.7-3.8,3.8s1.7,3.8,3.8,3.8H157c2.1,0,3.8-1.7,3.8-3.8S159.1,57.7,157,57.7z"/>
			<path class="st1" d="M83.4,54h-21c-2.1,0-3.8,1.7-3.8,3.8v21c0,2.1,1.7,3.8,3.8,3.8h21c2.1,0,3.8-1.7,3.8-3.8v-21
				C87.2,55.7,85.5,54,83.4,54z M79.7,74.9H66.3V61.5h13.4V74.9z"/>
			<path class="st1" d="M157,108.7H95.3c-2.1,0-3.8,1.7-3.8,3.8c0,2.1,1.7,3.8,3.8,3.8H157c2.1,0,3.8-1.7,3.8-3.8
				C160.8,110.4,159.1,108.7,157,108.7z"/>
			<path class="st1" d="M157,92.2H95.3c-2.1,0-3.8,1.7-3.8,3.8c0,2.1,1.7,3.8,3.8,3.8H157c2.1,0,3.8-1.7,3.8-3.8
				C160.8,93.9,159.1,92.2,157,92.2z"/>
			<path class="st1" d="M83.4,88.5h-21c-2.1,0-3.8,1.7-3.8,3.8v21c0,2.1,1.7,3.8,3.8,3.8h21c2.1,0,3.8-1.7,3.8-3.8v-21
				C87.2,90.2,85.5,88.5,83.4,88.5z M79.7,109.5H66.3V96.1h13.4V109.5z"/>
			<path class="st1" d="M157,141.4H95.3c-2.1,0-3.8,1.7-3.8,3.8s1.7,3.8,3.8,3.8H157c2.1,0,3.8-1.7,3.8-3.8S159.1,141.4,157,141.4z"
				/>
			<path class="st1" d="M157,126.8H95.3c-2.1,0-3.8,1.7-3.8,3.8c0,2.1,1.7,3.8,3.8,3.8H157c2.1,0,3.8-1.7,3.8-3.8
				C160.8,128.5,159.1,126.8,157,126.8z"/>
			<path class="st1" d="M83.4,123.1h-21c-2.1,0-3.8,1.7-3.8,3.8v21c0,2.1,1.7,3.8,3.8,3.8h21c2.1,0,3.8-1.7,3.8-3.8v-21
				C87.2,124.8,85.5,123.1,83.4,123.1z M79.7,144.1H66.3v-13.4h13.4V144.1z"/>
			<path class="st1" d="M112.6,185.7v-7.3c2,0.5,4,1.5,6,2.8l3.2-5.6c-2.6-1.8-5.5-3.1-9-3.5v-2.9h-5v2.8
				c-6.1,0.6-10.1,4.1-10.1,9.4v0.1c0,5.7,3.4,8.3,10.4,10.2v7.7c-2.8-0.6-5.3-1.9-7.8-3.9l-3.3,4.9l-0.4,0.6
				c3.2,2.4,7.2,4,11.4,4.6v2.4v2.4h5v-2.4v-2.3c4.3-0.4,7.6-2.3,9.2-5.3c0.7-1.2,1-2.6,1-4.2V196
				C123.1,190.6,119.9,187.6,112.6,185.7z M112.6,192.8c2.6,1,3.4,2,3.4,3.6v0.1c0,1.7-1.2,2.7-3.4,3.1V192.8z M104.8,181L104.8,181
				c0-1.6,1-2.8,3.3-3.1v6.5C105.4,183.5,104.8,182.5,104.8,181z"/>
		</g>
	</g>
</g>
<g>
	<path class="st2" d="M269.5,195.8c-0.5,0-1-0.2-1.4-0.6c-0.8-0.8-0.8-2.1,0-2.9l12.6-12.6L268,167.1c-0.8-0.8-0.8-2.1,0-2.9
		c0.8-0.8,2.1-0.8,2.9,0l14.1,14.1c0.4,0.4,0.6,0.9,0.6,1.4c0,0.5-0.2,1-0.6,1.4l-14.1,14.1C270.5,195.6,270,195.8,269.5,195.8z"/>
	<path class="st2" d="M283.4,181.6h-34.8c-1.1,0-2-0.9-2-2c0-1.1,0.9-2,2-2h34.8c1.1,0,2,0.9,2,2
		C285.4,180.7,284.5,181.6,283.4,181.6z"/>
</g>
<g>
	<path class="st2" d="M217,61.8h5.9c5.8,0,8.6,2.2,8.6,7.7c0,3.4-1,5.9-3.6,6.8l4.1,14.6H228l-3.8-13.7H221v13.7H217V61.8z
		 M222.6,74.3c3.4,0,4.9-1.1,4.9-4.8c0-3.4-0.9-4.8-4.6-4.8H221v9.6H222.6z"/>
	<path class="st2" d="M234.9,82.9v-4.8c0-5.5,1.4-8.3,6.2-8.3c5.2,0,5.9,3.4,5.9,9.1v1.7h-8.2v4.2c0,2.5,0.7,3.6,2.3,3.6
		c1.7,0,2.1-1.3,2.1-3.4v-1.3h3.7v0.8c0,4.2-1.6,6.7-5.9,6.7C236.2,91.2,234.9,88.3,234.9,82.9z M243.2,78.5v-1.9c0-2.6-0.3-4-2.2-4
		c-1.9,0-2.3,1.1-2.3,4.7v1.1H243.2z"/>
	<path class="st2" d="M258.7,89.6c-0.9,1-2,1.6-3.3,1.6c-3.5,0-5.2-2.3-5.2-8.5v-4c0-4.8,0.9-8.9,5.1-8.9c1.4,0,2.6,0.7,3.5,1.6
		v-1.3h3.9v27.6h-3.9V89.6z M258.7,87.4V73.7c-0.7-0.5-1.5-0.9-2.4-0.9c-1.8,0-2.3,2-2.3,4.4v5.9c0,2.9,0.3,5.1,2.3,5.1
		C257,88.2,257.9,87.9,258.7,87.4z"/>
	<path class="st2" d="M266.3,86.9V70.1h3.9v15.7c0,1.5,0.3,2.4,1.7,2.4c0.9,0,1.8-0.6,2.7-1.3V70.1h3.9v20.8h-3.9v-2.1
		c-1.4,1.3-3.1,2.3-5.1,2.3C266.9,91.2,266.3,89,266.3,86.9z"/>
	<path class="st2" d="M281.9,82.9v-4.8c0-5.5,1.4-8.3,6.2-8.3c5.2,0,5.9,3.4,5.9,9.1v1.7h-8.2v4.2c0,2.5,0.7,3.6,2.3,3.6
		c1.7,0,2.1-1.3,2.1-3.4v-1.3h3.7v0.8c0,4.2-1.6,6.7-5.9,6.7C283.1,91.2,281.9,88.3,281.9,82.9z M290.2,78.5v-1.9c0-2.6-0.3-4-2.2-4
		c-1.9,0-2.3,1.1-2.3,4.7v1.1H290.2z"/>
	<path class="st2" d="M296.4,85.4l3.2-1c0.4,2.7,1.2,4,3,4c1.4,0,2.1-0.9,2.1-2.2c0-1.2-0.5-2.1-1.7-3.1l-3.6-3.1
		c-1.4-1.2-2.6-2.6-2.6-5.1c0-3.3,2.1-5.1,5.4-5.1c3.3,0,5,2.4,5.3,5.5l-2.6,1c-0.3-2.2-0.9-3.6-2.6-3.6c-1.3,0-2.1,1-2.1,2.1
		c0,0.7,0.3,1.4,1,2.1l3.7,3.4c1.5,1.4,3,3,3,5.6c0,3.6-2.3,5.3-5.8,5.3C298.8,91.2,296.7,88.9,296.4,85.4z"/>
	<path class="st2" d="M311.9,86.2V72.7h-2.2v-2.6h2.2V64h3.9v6.1h3.3v2.6h-3.3V86c0,1.6,0.4,2.3,1.9,2.3c0.4,0,0.9,0,1.4-0.1V91
		c-1,0.1-1.7,0.2-2.7,0.2C313.2,91.2,311.9,89.3,311.9,86.2z"/>
	<path class="st2" d="M222.8,104.8h3.9l6.2,29.2h-3.9l-1.3-7.3h-5.9l-1.4,7.3h-3.8L222.8,104.8z M227.3,123.7l-2.4-13.1l-2.4,13.1
		H227.3z"/>
	<path class="st2" d="M252.3,134.2c-0.2,0-0.4,0-0.7,0c-5.9,0-8-3.7-8-9.5v-11.1c0-5.8,2.1-9.2,8-9.2c5.9,0,8,3.5,8,9.2v11.1
		c0,4.3-1.2,7.5-4.3,8.7c0.9,1.1,2,2.4,2.9,3.1l-0.6,3.2C255.6,138.8,253.7,136.2,252.3,134.2z M255.5,125.7v-12.8
		c0-3.2-0.6-5.2-3.9-5.2s-3.9,2-3.9,5.2v12.8c0,3.2,0.6,5.4,3.9,5.4S255.5,128.9,255.5,125.7z"/>
	<path class="st2" d="M263.2,129.9v-16.8h3.9v15.7c0,1.5,0.3,2.4,1.7,2.4c0.9,0,1.8-0.6,2.7-1.3v-16.8h3.9v20.8h-3.9v-2.1
		c-1.4,1.3-3.1,2.3-5.1,2.3C263.9,134.2,263.2,132,263.2,129.9z"/>
	<path class="st2" d="M278.8,126.5v-6c0-4.7,1.4-7.7,6.1-7.7c4.6,0,6,3,6,7.7v6c0,4.7-1.4,7.7-6,7.7
		C280.3,134.2,278.8,131.2,278.8,126.5z M287.1,126.8v-6.5c0-2.3,0-4.6-2.2-4.6c-2.2,0-2.2,2.3-2.2,4.6v6.5c0,2.3,0,4.6,2.2,4.6
		C287.1,131.4,287.1,129.1,287.1,126.8z"/>
	<path class="st2" d="M295.5,129.2v-13.6h-2.2v-2.6h2.2V107h3.9v6.1h3.3v2.6h-3.3V129c0,1.6,0.4,2.3,1.9,2.3c0.4,0,0.9,0,1.4-0.1
		v2.8c-1,0.1-1.7,0.2-2.7,0.2C296.8,134.2,295.5,132.3,295.5,129.2z"/>
	<path class="st2" d="M305.2,125.9v-4.8c0-5.5,1.4-8.3,6.2-8.3c5.2,0,5.9,3.4,5.9,9.1v1.7H309v4.2c0,2.5,0.7,3.6,2.3,3.6
		c1.7,0,2.1-1.3,2.1-3.4v-1.3h3.7v0.8c0,4.2-1.6,6.7-5.9,6.7C306.4,134.2,305.2,131.3,305.2,125.9z M313.5,121.5v-1.9
		c0-2.6-0.3-4-2.2-4c-1.9,0-2.3,1.1-2.3,4.7v1.1H313.5z"/>
</g>
</svg>
