<?xml version="1.0" encoding="utf-8"?>
<!-- Generator: Adobe Illustrator 26.2.1, SVG Export Plug-In . SVG Version: 6.00 Build 0)  -->
<svg version="1.1" id="Layer_1" xmlns="http://www.w3.org/2000/svg" xmlns:xlink="http://www.w3.org/1999/xlink" x="0px" y="0px"
	 viewBox="0 0 131.1 38.1" style="enable-background:new 0 0 131.1 38.1;" xml:space="preserve">
<style type="text/css">
	.st0{fill:#333333;}
	.st1{fill:#F9B23E;}
	.st2{fill:none;stroke:#FFFFFF;stroke-width:3.7621;stroke-linecap:round;stroke-miterlimit:10;}
</style>
<g>
	<path class="st0" d="M12.5,12.3l-1.8,2.1c-1.2-0.9-2.3-1.4-3.6-1.4c-1.4,0-2.2,0.6-2.2,1.6c0,1.1,0.6,1.5,3.2,2.3
		c3.1,1,4.9,2.3,4.9,5.4c0,3.1-2.4,5.3-6.6,5.3c-2.9,0-4.9-1.1-6.3-2.4l2-2.2c1.2,1,2.5,1.6,4.2,1.6c1.6,0,2.6-0.8,2.6-2
		c0-1.2-0.6-1.8-3-2.5C2.1,19,0.7,17.5,0.7,15c0-2.9,2.5-4.8,6-4.8C9.2,10.2,11,10.9,12.5,12.3z"/>
	<path class="st0" d="M25.7,27.2h-3.3l-0.2-1.6c-0.9,1.3-2.2,2-3.9,2c-2.4,0-3.6-1.5-3.6-4v-9.1h3.8v8.7c0,1.3,0.4,1.7,1.2,1.7
		s1.5-0.5,2.1-1.5v-8.9h3.8V27.2z"/>
	<path class="st0" d="M40.6,20.9c0,3.9-1.9,6.8-5.1,6.8c-1.4,0-2.6-0.6-3.3-1.6L32,27.2h-3.4V9.4L32.4,9v6.8c0.8-1.1,2-1.7,3.4-1.7
		C38.9,14.1,40.6,16.6,40.6,20.9z M36.6,20.9c0-3.2-0.9-4-2.1-4c-0.9,0-1.6,0.6-2.2,1.5v5.3c0.5,0.8,1.2,1.2,2,1.2
		C35.7,24.9,36.6,23.9,36.6,20.9z"/>
	<path class="st0" d="M60.2,17.9v9.3h-3.8v-8.7c0-1.3-0.5-1.7-1.1-1.7c-0.8,0-1.4,0.6-1.9,1.7v8.7h-3.8v-8.7c0-1.3-0.5-1.7-1.1-1.7
		c-0.8,0-1.4,0.6-1.9,1.7v8.7h-3.8V14.5h3.3l0.3,1.5c1-1.3,2.1-1.9,3.7-1.9c1.4,0,2.5,0.7,3,2c1-1.3,2.2-2,3.8-2
		C58.8,14.1,60.2,15.5,60.2,17.9z"/>
	<path class="st0" d="M67.1,9.9c0,1.2-0.9,2.2-2.3,2.2c-1.3,0-2.2-0.9-2.2-2.2s0.9-2.2,2.2-2.2C66.2,7.8,67.1,8.7,67.1,9.9z
		 M66.8,27.2H63V14.5h3.8V27.2z"/>
	<path class="st0" d="M77.7,26.6c-1,0.7-2.3,1-3.5,1c-2.8,0-4.2-1.6-4.2-4.6v-5.9h-1.8v-2.6h1.8v-2.8l3.8-0.4v3.2h2.9l-0.4,2.6h-2.5
		V23c0,1.2,0.4,1.7,1.2,1.7c0.4,0,0.9-0.1,1.4-0.4L77.7,26.6z"/>
</g>
<circle class="st1" cx="112" cy="19" r="19"/>
<g>
	<polyline class="st2" points="112.5,8.9 122.5,18.9 112.5,28.9 	"/>
	<line class="st2" x1="100.7" y1="19" x2="122" y2="19"/>
</g>
</svg>
