<?xml version="1.0" encoding="utf-8"?>
<!-- Generator: Adobe Illustrator 26.4.1, SVG Export Plug-In . SVG Version: 6.00 Build 0)  -->
<svg version="1.1" id="Main" xmlns="http://www.w3.org/2000/svg" xmlns:xlink="http://www.w3.org/1999/xlink" x="0px" y="0px"
	 viewBox="0 0 284 226.6" style="enable-background:new 0 0 284 226.6;" xml:space="preserve">
<style type="text/css">
	.st0{fill:#FFFFFF;}
</style>
<path class="st0" d="M132.6,226.6c-25.2,0-45.7-20.5-45.7-45.7c0-25.2,20.5-45.7,45.7-45.7c25.2,0,45.7,20.5,45.7,45.7
	C178.3,206.1,157.8,226.6,132.6,226.6z M132.6,144.9c-19.9,0-36.1,16.2-36.1,36.1c0,19.9,16.2,36.1,36.1,36.1
	c19.9,0,36.1-16.2,36.1-36.1C168.7,161.1,152.5,144.9,132.6,144.9z"/>
<path class="st0" d="M135,207.4h-2.4c-14.6,0-26.4-11.9-26.4-26.4c0-14.6,11.9-26.4,26.4-26.4c14.6,0,26.4,11.9,26.4,26.4
	c0,7.2-2.9,14-8.1,19l-6.7-6.9c3.3-3.2,5.2-7.5,5.2-12.1c0-9.3-7.5-16.8-16.8-16.8c-9.3,0-16.8,7.5-16.8,16.8
	c0,9.3,7.5,16.8,16.8,16.8h2.4V207.4z"/>
<path class="st0" d="M50.9,197.8c-25.2,0-45.7-20.5-45.7-45.7c0-25.2,20.5-45.7,45.7-45.7c20.1,0,37.6,12.9,43.6,32.1l-9.2,2.9
	c-4.7-15.2-18.6-25.3-34.4-25.3c-19.9,0-36.1,16.2-36.1,36.1s16.2,36.1,36.1,36.1c8.3,0,16.1-2.7,22.5-7.9l6,7.5
	C71.3,194.2,61.2,197.8,50.9,197.8z"/>
<path class="st0" d="M50.9,178.6c-14.6,0-26.4-11.9-26.4-26.4c0-14.6,11.9-26.4,26.4-26.4c3.4,0,6.9,1,8.2,1.4l-2.8,9.2
	c-1.9-0.6-4-1-5.4-1c-9.3,0-16.8,7.5-16.8,16.8c0,9.3,7.5,16.8,16.8,16.8c9.3,0,16.8-7.5,16.8-16.8c0-2.9-0.8-5.8-2.2-8.4l8.3-4.8
	c2.3,4,3.5,8.6,3.5,13.2C77.3,166.7,65.4,178.6,50.9,178.6z"/>
<rect x="73.5" y="46.4" transform="matrix(0.3328 -0.943 0.943 0.3328 -59.4552 152.8584)" class="st0" width="9.6" height="144"/>
<rect x="55.5" y="136.5" transform="matrix(0.3328 -0.943 0.943 0.3328 -147.2266 189.4881)" class="st0" width="9.6" height="124.5"/>
<path class="st0" d="M154.4,221.1l-4.6-8.4l105.8-57.7c11.6-6.3,18.8-18.5,18.8-31.7c0-15.2-9.7-28.9-24.1-34L23.2,9.1L26.4,0
	l227.2,80.2c18.2,6.4,30.5,23.7,30.5,43c0,16.7-9.1,32.1-23.8,40.1L154.4,221.1z"/>
<rect x="223.2" y="132.7" transform="matrix(0.878 -0.4786 0.4786 0.878 -34.9671 137.8813)" class="st0" width="59.6" height="9.6"/>
<rect x="170.5" y="164.5" transform="matrix(0.878 -0.4786 0.4786 0.878 -57.2507 113.9053)" class="st0" width="48.8" height="9.6"/>
<rect x="160.5" y="126.6" transform="matrix(0.878 -0.4786 0.4786 0.878 -35.9642 121.6439)" class="st0" width="120.5" height="9.6"/>
<path class="st0" d="M219.2,102.6l-4.7-8.4c0,0,8.1-4.4,15.7-8.6l13.4-7.3l4.6,8.4c-0.2,0.1-6.6,3.6-13.4,7.3
	C227.3,98.2,219.5,102.5,219.2,102.6z"/>
<polygon class="st0" points="201.2,112.5 196.6,104 203.5,100.3 208.1,108.7 "/>
<rect x="136.9" y="122.6" transform="matrix(0.878 -0.4786 0.4786 0.878 -40.9776 93.9513)" class="st0" width="53.9" height="9.6"/>
<rect x="100.7" y="95.3" transform="matrix(0.878 -0.4786 0.4786 0.878 -28.29 89.231)" class="st0" width="120.4" height="9.6"/>
<rect x="116.7" y="71.7" transform="matrix(0.878 -0.4786 0.4786 0.878 -18.1628 81.7545)" class="st0" width="69.2" height="9.6"/>
<rect x="73.6" y="103.6" transform="matrix(0.878 -0.4786 0.4786 0.878 -40.5219 57.6991)" class="st0" width="38.7" height="9.6"/>
<rect x="36.5" y="72.6" transform="matrix(0.878 -0.4786 0.4786 0.878 -25.2716 55.7361)" class="st0" width="120.4" height="9.6"/>
<rect x="54.2" y="48.6" transform="matrix(0.878 -0.4786 0.4786 0.878 -14.8505 48.5772)" class="st0" width="67.4" height="9.6"/>
<rect x="39" y="72.6" transform="matrix(0.8889 -0.4581 0.4581 0.8889 -30.6328 28.5839)" class="st0" width="9.2" height="9.6"/>
<path class="st0" d="M17.2,68.6l-4.6-8.4c0,0,69.6-37.9,70.5-38.4l2.3,4.2h4.8c0,2.9,0,2.9-13.5,10.2L17.2,68.6z"/>
<rect x="17.5" y="18.9" transform="matrix(0.878 -0.4786 0.4786 0.878 -6.908 20.3815)" class="st0" width="38.2" height="9.6"/>
</svg>
