<?xml version="1.0" encoding="utf-8"?>
<!-- Generator: Adobe Illustrator 27.0.1, SVG Export Plug-In . SVG Version: 6.00 Build 0)  -->
<svg version="1.1" id="Layer_1" xmlns="http://www.w3.org/2000/svg" xmlns:xlink="http://www.w3.org/1999/xlink" x="0px" y="0px"
	 viewBox="0 0 269.7 276.1" style="enable-background:new 0 0 269.7 276.1;" xml:space="preserve">
<style type="text/css">
	.st0{fill:none;stroke:#FFFFFF;stroke-width:9;stroke-linecap:round;stroke-linejoin:round;stroke-miterlimit:10;}
	.st1{fill:#FFFFFF;}
	.st2{fill:none;stroke:#FFFFFF;stroke-width:9;stroke-linecap:round;stroke-miterlimit:10;}
</style>
<path class="st0" d="M207.9,151.6c-6.6,0-12,5.4-12,12v-8c0-6.6-5.4-12-12-12s-12,5.4-12,12v-8c0-6.6-5.4-12-12-12s-12,5.4-12,12
	v-56c0-6.6-5.4-12-12-12s-12,5.4-12,12v124l-16.9-8v-32c0-6.6-5.4-12-12-12s-12,5.4-12,12v40c0,2.8,1,5.5,2.8,7.7l48.9,48
	c0.1,0.1,0.2,0.2,0.3,0.3h8.9h8.2h59.8c7-25.3,8-44,8-44v-64C219.9,157,214.6,151.6,207.9,151.6z"/>
<g>
	<path class="st1" d="M39.5,30.5c7.7,0,14,6.3,14,14c0,7.7-6.3,14-14,14s-14-6.3-14-14C25.5,36.8,31.8,30.5,39.5,30.5 M39.5,21.5
		c-12.7,0-23,10.3-23,23s10.3,23,23,23c12.7,0,23-10.3,23-23S52.2,21.5,39.5,21.5L39.5,21.5z"/>
</g>
<g>
	<path class="st1" d="M249.7,132.7c6.1,0,11,4.9,11,11s-4.9,11-11,11s-11-4.9-11-11S243.6,132.7,249.7,132.7 M249.7,123.7
		c-11,0-20,9-20,20s9,20,20,20c11,0,20-9,20-20S260.7,123.7,249.7,123.7L249.7,123.7z"/>
</g>
<g>
	<path class="st1" d="M113.8,9c5.6,0,10.2,4.6,10.2,10.2c0,5.6-4.6,10.2-10.2,10.2s-10.2-4.6-10.2-10.2C103.5,13.6,108.1,9,113.8,9
		 M113.8,0c-10.6,0-19.2,8.6-19.2,19.2c0,10.6,8.6,19.2,19.2,19.2c10.6,0,19.2-8.6,19.2-19.2C133,8.6,124.4,0,113.8,0L113.8,0z"/>
</g>
<g>
	<path class="st1" d="M230.6,76.9c5.6,0,10.2,4.6,10.2,10.2c0,5.6-4.6,10.2-10.2,10.2s-10.2-4.6-10.2-10.2
		C220.4,81.5,225,76.9,230.6,76.9 M230.6,67.9c-10.6,0-19.2,8.6-19.2,19.2s8.6,19.2,19.2,19.2s19.2-8.6,19.2-19.2
		S241.2,67.9,230.6,67.9L230.6,67.9z"/>
</g>
<g>
	<path class="st1" d="M26.2,130.4c9.5,0,17.2,7.7,17.2,17.2s-7.7,17.2-17.2,17.2C16.7,164.7,9,157,9,147.6S16.7,130.4,26.2,130.4
		 M26.2,121.4C11.7,121.4,0,133.1,0,147.6s11.7,26.2,26.2,26.2c14.5,0,26.2-11.7,26.2-26.2S40.6,121.4,26.2,121.4L26.2,121.4z"/>
</g>
<g>
	<path class="st1" d="M241,13.8c3.7,0,6.7,2.9,7,6.5c0.3,3.9-2.7,7.2-6.5,7.5c-0.2,0-0.3,0-0.5,0c-3.7,0-6.7-2.9-7-6.5
		c-0.3-3.9,2.7-7.2,6.5-7.5C240.7,13.8,240.9,13.8,241,13.8 M241,4.8c-0.4,0-0.7,0-1.1,0c-8.8,0.6-15.5,8.2-14.9,17
		c0.6,8.5,7.6,14.9,15.9,14.9c0.4,0,0.7,0,1.1,0c8.8-0.6,15.5-8.2,14.9-17C256.4,11.3,249.4,4.8,241,4.8L241,4.8z"/>
</g>
<line class="st2" x1="213.2" y1="38.8" x2="159.4" y2="73.6"/>
<line class="st2" x1="122.8" y1="51.6" x2="127.7" y2="68.8"/>
<line class="st2" x1="72.1" y1="63.5" x2="107" y2="80.7"/>
<line class="st2" x1="62.9" y1="125.2" x2="105.6" y2="101.9"/>
<line class="st2" x1="191.6" y1="90" x2="167.8" y2="91.3"/>
<line class="st2" x1="212.4" y1="127.4" x2="166.9" y2="108.5"/>
</svg>
