<?xml version="1.0" encoding="utf-8"?>
<!-- Generator: Adobe Illustrator 27.0.1, SVG Export Plug-In . SVG Version: 6.00 Build 0)  -->
<svg version="1.1" id="E-Learning-2-iStock" xmlns="http://www.w3.org/2000/svg" xmlns:xlink="http://www.w3.org/1999/xlink"
	 x="0px" y="0px" viewBox="0 0 56 46" style="enable-background:new 0 0 56 46;" xml:space="preserve">
<style type="text/css">
	.st0{fill:none;stroke:#FFFFFF;stroke-width:2;stroke-linecap:round;stroke-linejoin:round;stroke-miterlimit:10;}
</style>
<g>
	<g>
		<polygon class="st0" points="55,40 1,40 5,32 51,32 		"/>
		<path class="st0" d="M5,32V5c0-2.2,1.8-4,4-4h38c2.2,0,4,1.8,4,4v27H5z"/>
		<path class="st0" d="M55,40v2c0,1.7-1.3,3-3,3H4c-1.7,0-3-1.3-3-3v-2H55z"/>
		<path class="st0" d="M30,36h-4c0,0,0,0,0,0s0,0,0,0L30,36C30,36,30,36,30,36C30,36,30,36,30,36z"/>
	</g>
	<g>
		<path class="st0" d="M28,21.5c-0.2,0-0.3,0-0.5-0.1l-11.9-6.6c-0.3-0.2-0.5-0.5-0.5-0.8c0-0.3,0.2-0.6,0.5-0.8l11.9-6.6
			c0.2-0.1,0.3-0.1,0.5-0.1c0.2,0,0.3,0,0.5,0.1l11.9,6.6c0.3,0.2,0.5,0.5,0.5,0.8c0,0.3-0.2,0.6-0.5,0.8l-11.9,6.6
			C28.3,21.5,28.2,21.5,28,21.5z"/>
		<polygon class="st0" points="40.9,14 40.9,14 28,14 28,14 40.9,14 40.9,20.1 40.9,20.1 40.9,14 		"/>
		<path class="st0" d="M27.2,26.3c0.5,0.2,1.1,0.2,1.7,0l7.8-3.6v-5.8l-8.1,4.5c-0.2,0.1-0.3,0.1-0.5,0.1c-0.2,0-0.3,0-0.5-0.1
			l-8.1-4.5v5.8L27.2,26.3z"/>
		<circle class="st0" cx="40.9" cy="21.1" r="1"/>
	</g>
</g>
</svg>
