<?xml version="1.0" encoding="utf-8"?>
<!-- Generator: Adobe Illustrator 26.4.1, SVG Export Plug-In . SVG Version: 6.00 Build 0)  -->
<svg version="1.1" id="Main" xmlns="http://www.w3.org/2000/svg" xmlns:xlink="http://www.w3.org/1999/xlink" x="0px" y="0px"
	 viewBox="0 0 288.5 230.8" style="enable-background:new 0 0 288.5 230.8;" xml:space="preserve">
<style type="text/css">
	.st0{fill:#FFFFFF;}
</style>
<g>
	<path class="st0" d="M127.5,96.2H72.1v-9.6h55.4c1.5,0,3-0.8,3.9-2l28.5-40l18,13.1l-5-48.1l-48,9.8l19.4,13.9L120,67.3H81.7v-9.6
		h33.4L131,35.4l-11.6-8.5c-2.5-1.9-4-4.7-4-7.7c0-4.5,3.1-8.4,7.7-9.3l48.1-9.7c0.6-0.1,1.3-0.2,1.9-0.2c4.8,0,8.9,3.7,9.5,8.5
		l4.9,48.2c0,0.1,0,0.7,0,1c0,5.3-4.3,9.6-9.6,9.6c-1.9,0-3.8-0.6-5.5-1.9L162.1,58l-22.9,32.1C136.5,93.9,132.1,96.2,127.5,96.2z"
		/>
	<rect x="52.9" y="86.5" class="st0" width="9.6" height="9.6"/>
	<path class="st0" d="M55.3,201.9c-14.6,0-26.4-11.9-26.4-26.4S40.7,149,55.3,149s26.4,11.9,26.4,26.4S69.9,201.9,55.3,201.9z
		 M55.3,158.7c-9.3,0-16.8,7.5-16.8,16.8c0,9.3,7.5,16.8,16.8,16.8c9.3,0,16.8-7.5,16.8-16.8C72.1,166.2,64.6,158.7,55.3,158.7z"/>
	<path class="st0" d="M180.3,201.9c-14.6,0-26.4-11.9-26.4-26.4s11.9-26.4,26.4-26.4s26.4,11.9,26.4,26.4S194.9,201.9,180.3,201.9z
		 M180.3,158.7c-9.3,0-16.8,7.5-16.8,16.8c0,9.3,7.5,16.8,16.8,16.8c9.3,0,16.8-7.5,16.8-16.8C197.1,166.2,189.6,158.7,180.3,158.7z
		"/>
	<path class="st0" d="M262,105.8c-14.6,0-26.4-11.9-26.4-26.4c0-14.6,11.9-26.4,26.4-26.4c14.6,0,26.4,11.9,26.4,26.4
		C288.5,93.9,276.6,105.8,262,105.8z M262,62.5c-9.3,0-16.8,7.5-16.8,16.8c0,9.3,7.5,16.8,16.8,16.8c9.3,0,16.8-7.5,16.8-16.8
		C278.8,70,271.3,62.5,262,62.5z"/>
	<path class="st0" d="M185.1,230.8H55.3C24.8,230.8,0,206,0,175.5s24.8-55.3,55.3-55.3h102.4L218.1,41
		c10.6-13.8,26.6-21.7,43.9-21.7h26.4v9.6H262c-14.3,0-27.5,6.5-36.3,18l-63.3,83H55.3c-25.2,0-45.7,20.5-45.7,45.7
		c0,25.2,20.5,45.7,45.7,45.7h129.8c14.3,0,27.5-6.5,36.3-18l56.8-74.5l7.6,5.8L229,209C218.4,222.8,202.4,230.8,185.1,230.8z"/>
</g>
</svg>
