<?xml version="1.0" encoding="utf-8"?>
<!-- Generator: Adobe Illustrator 26.4.1, SVG Export Plug-In . SVG Version: 6.00 Build 0)  -->
<svg version="1.1" id="Icons" xmlns="http://www.w3.org/2000/svg" xmlns:xlink="http://www.w3.org/1999/xlink" x="0px" y="0px"
	 viewBox="0 0 50 50" style="enable-background:new 0 0 50 50;" xml:space="preserve">
<style type="text/css">
	.st0{fill:none;stroke:#FFFFFF;stroke-width:2;stroke-linecap:round;stroke-linejoin:round;stroke-miterlimit:10;}
</style>
<g>
	<g>
		<path class="st0" d="M33.1,22.1c3.9,1.4,8.4,0.6,11.5-2.5c3.1-3.1,3.9-7.6,2.5-11.5l-6.4,6.4l-5.1-1.3l-1.3-5.1l6.4-6.4
			c-3.9-1.4-8.4-0.6-11.5,2.5c-3.1,3.1-3.9,7.6-2.5,11.5l-3.7,3.7l6.4,6.4L33.1,22.1z"/>
		<path class="st0" d="M10.8,31.6c-2.6-0.5-5.4,0.2-7.4,2.2c-3.2,3.2-3.2,8.4,0,11.6c3.2,3.2,8.4,3.2,11.6,0c2-2,2.8-4.8,2.2-7.4
			l8.6-8.6l-6.4-6.4L10.8,31.6z"/>
		<path class="st0" d="M11.8,42.2c-1.4,1.4-3.7,1.4-5.1,0c-1.4-1.4-1.4-3.7,0-5.1c1.4-1.4,3.7-1.4,5.1,0
			C13.2,38.4,13.2,40.7,11.8,42.2z"/>
	</g>
	<g>
		<polygon class="st0" points="3.8,2.1 2.1,3.8 3.8,10.8 9.9,13.4 25.9,29.4 29.4,25.9 13.4,9.9 10.8,3.8 		"/>
		<path class="st0" d="M34.8,24.3l-1.9-1.9L22.4,32.9l1.9,1.9l0,0c2.9,0,4.4,1.5,4.4,4.4l0,0l7.7,7.7c2.9,2.9,7.6,2.9,10.5,0h0
			c2.9-2.9,2.9-7.6,0-10.5l-7.7-7.7l0,0C36.3,28.7,34.8,27.2,34.8,24.3L34.8,24.3z"/>
		<polygon class="st0" points="39.9,43.3 39.9,43.4 33.9,37.4 33.9,37.4 		"/>
		<rect x="40.4" y="32.7" transform="matrix(0.7071 -0.7071 0.7071 0.7071 -14.2611 39.3561)" class="st0" width="0" height="8.4"/>
	</g>
</g>
</svg>
